# xmcd
#
# Track frame offsets:
#	150
#	19390
#	40455
#	60750
#	83025
#	102210
#	120737
#	136772
#	154875
#	175767
#	193267
#	206717
#	225952
#	248097
#	269467
#	288797
#
# Disc length: 4139 seconds
#
# Revision: 1
# Processed by: cddbd v1.5.1PL0 Copyright (c) Steve Scherf et al.
# Submitted via: CDex 1.50Beta5
#
DISCID=d5102910
DTITLE=五木ひろし - 全曲集〜汽笛 女・ひとり〜
DYEAR=1994
DGENRE=World
TTITLE0=汽笛
TTITLE1=女・ひとり
TTITLE2=北の物語り
TTITLE3=京都悠遊
TTITLE4=べにばな
TTITLE5=そして…めぐり逢い
TTITLE6=倖せさがして
TTITLE7=時が過ぎれば…
TTITLE8=追憶
TTITLE9=ブランコ
TTITLE10=五月の小舟
TTITLE11=契り
TTITLE12=渚の女
TTITLE13=涙でもかまわない
TTITLE14=華
TTITLE15=終着駅
EXTD=
EXTT0=
EXTT1=
EXTT2=
EXTT3=
EXTT4=
EXTT5=
EXTT6=
EXTT7=
EXTT8=
EXTT9=
EXTT10=
EXTT11=
EXTT12=
EXTT13=
EXTT14=
EXTT15=
PLAYORDER=
